<svg width="48" height="48" fill="none" xmlns="http://www.w3.org/2000/svg"><g clip-path="url(#a)"><path d="M46.3 9.422c-1.129.93-2.617 1.393-4.102 1.393-.158 0-.315 0-.472-.016h-.178a2.284 2.284 0 0 0-1.444.49 1.535 1.535 0 0 0-.597 1.183v5.5a1.534 1.534 0 0 1 .597-1.183c.411-.324.92-.497 1.444-.49.06 0 .119 0 .178.006.157.01.314.015.472.015 1.485 0 2.97-.463 4.103-1.391 1.132-.93 1.7-2.146 1.7-3.362V6.062c0 1.217-.567 2.433-1.7 3.36zM22.437 12.877c-.08-.07-.162-.14-.25-.206-1.292-1.064-2.94-1.573-4.588-1.573-.32 0-.64.019-.959.058a2.762 2.762 0 0 1-1.255-.559c-.531-.435-.795-.991-.795-1.538v5.5c0 .547.264 1.102.795 1.538.365.289.796.481 1.255.559.318-.04.638-.059.959-.06 1.648 0 3.296.514 4.592 1.579.085.067.166.135.252.207 1.143 1.004 1.713 2.297 1.713 3.587v-5.505c-.005-1.29-.575-2.58-1.719-3.587z" fill="#6A4632"/><path d="M46.716 23.977 26.94 40.178a4.925 4.925 0 0 1-5.997 0L1.242 24.04C.413 23.361 0 22.473 0 21.584v5.5c0 .888.414 1.778 1.241 2.456l19.706 16.138a4.93 4.93 0 0 0 5.997 0l19.772-16.202c.829-.678 1.243-1.567 1.243-2.456v-5.505c0 .894-.414 1.783-1.243 2.462z" fill="#6A4632"/><path d="M42.198 1.308c1.481 0 2.97.465 4.102 1.392 2.267 1.857 2.267 4.865 0 6.722-1.13.928-2.618 1.393-4.103 1.393-.158 0-.315 0-.472-.016h-.178a2.284 2.284 0 0 0-1.444.489c-.797.654-.797 1.713 0 2.367l6.614 5.417c1.656 1.356 1.656 3.555 0 4.912L26.939 40.179a4.925 4.925 0 0 1-5.997 0L1.242 24.04c-1.656-1.355-1.656-3.554 0-4.909l5.108-4.184a2.968 2.968 0 0 1 3.614 0l.608.502c.259.209.46.479.589.786-.045 1.415.6 2.842 1.938 3.912a7.247 7.247 0 0 0 4.62 1.603c1.68 0 3.359-.535 4.625-1.605 2.371-2.002 2.416-5.22.094-7.262-.08-.07-.162-.14-.25-.206-1.292-1.07-2.94-1.579-4.588-1.579-.32 0-.641.019-.96.058a2.761 2.761 0 0 1-1.254-.558c-1.05-.861-1.05-2.187-.052-3.004l5.69-4.66a4.924 4.924 0 0 1 5.996 0l5.92 4.848a2.37 2.37 0 0 0 2.887 0 1.506 1.506 0 0 0 .589-1.328c-.133-1.343.426-2.72 1.679-3.749 1.133-.932 2.618-1.397 4.103-1.397z" fill="#CA9350"/><path d="M42.617 1.324h-.933c.173-.014.342-.02.515-.02.139.005.277.005.418.02z" fill="#9D6C3E"/><path opacity=".75" d="M46.3 9.422s-1.69-3.263-1.568-4.734c.081-.957.212-2.096.292-2.777a6.677 6.677 0 0 0-2.397-.587H41.67a.077.077 0 0 0-.023 0c-.077.042-1.449.856-1.091 3.6.368 2.826 3.196 3.067 3.193 5.708l.041-.01-.041.011c0 2.644-.162 5.533-.162 5.533a6.463 6.463 0 0 0 1.836-.667l.871-6.086.006.009z" fill="#9D6C3E"/><path fill-rule="evenodd" clip-rule="evenodd" d="M46.292 9.43a6.147 6.147 0 0 1-2.543 1.213c0 2.641-.162 5.523-.162 5.523a6.46 6.46 0 0 0 1.836-.666l.869-6.07z" fill="#543426"/><path fill-rule="evenodd" clip-rule="evenodd" d="M46.292 9.43a6.147 6.147 0 0 1-2.543 1.213c0 2.641-.162 5.523-.162 5.523a6.46 6.46 0 0 0 1.836-.666l.869-6.07z" fill="#543426"/><path opacity=".75" d="M34.628 10.913s-5.162.109-6.698 4.925c-1.537 4.816 3.936 3.375 5.977.571 2.04-2.804 3.292-6.071.721-5.496z" fill="#9D6C3E"/><path opacity=".75" d="M40.103 13.649a1.533 1.533 0 0 1-.599-1.182c-.985 4.61-5.97 8.187-10.794 9.054-4.823.867-6.063 3.23-6.063 3.23-4.93 6.305-10.276 7.28-11.482 7.419v5.484l6.704 5.508s-.93-3.562.878-4.78C24.96 34.19 30.294 22.325 35.44 20.615c5.147-1.71 6.938-5.104 6.938-5.104l-2.275-1.863z" fill="#9D6C3E"/><path fill-rule="evenodd" clip-rule="evenodd" d="m18.748 38.38-7.582-6.21h-.001v5.492l1.843 1.514 4.856 3.977c-.064-.26-.855-3.6.883-4.771l.001-.001z" fill="#543426"/><path opacity=".75" d="m46.719 19.066-2.369-1.943s-3.675 6.136-11.001 10.118c-7.326 3.98-11.452 13.52-11.452 13.52.053.024.107.045.16.068l-.14-.06-.02-.008v5.293l.412.358a5.117 5.117 0 0 0 3.111.065l.047-.133.173-5.438-.033.01c-.041.016-.083.027-.125.04.052-.017.106-.03.158-.05l.011-.365s3.858-8.477 10.418-10.848c6.489-2.343 11.462-9.334 11.57-9.487a3.487 3.487 0 0 0-.92-1.14z" fill="#9D6C3E"/><path fill-rule="evenodd" clip-rule="evenodd" d="M25.64 40.894a4.926 4.926 0 0 1-3.74-.14.5.5 0 0 0-.003.007v5.487l.296.125a4.93 4.93 0 0 0 3.274.082v-.111l.173-5.438v-.012zm-.077.037a2.353 2.353 0 0 1-.081.025l.024-.008c.02-.005.038-.01.057-.017zm-3.507-.102-.029-.013.03.013z" fill="#543426"/><path d="M44.08 31.636s-2.848-1.919-5.12-1.304c-2.272.615-9.057 3.891-9.884 8.098-.828 4.208 0 5.5 0 5.5l3.334-2.733s-1.004-3.07 3.03-5.731c4.032-2.662 5.623-1.357 5.623-1.357l3.018-2.473z" fill="#9D6C3E"/><path fill-rule="evenodd" clip-rule="evenodd" d="M44.08 31.636c-.056-.038-2.871-1.913-5.12-1.304l-.003.001-9.88 8.094-.001.003c-.828 4.208 0 5.5 0 5.5l3.334-2.733s-1.004-3.07 3.03-5.731c3.98-2.628 5.582-1.39 5.623-1.358l3.017-2.472z" fill="#543426"/><path opacity=".75" d="m9.25 30.602-2.265-1.856c8.136-.72 10.134-6.778 10.134-6.778l.213-.23a7.477 7.477 0 0 0 3.996-.894s2.311 4.588-12.078 9.758z" fill="#9D6C3E"/><path opacity=".75" d="m6.985 28.746 2.266 1.856v5.494l-2.266-1.848v-5.502z" fill="#543426"/><path opacity=".75" d="m11.35 17.642-.188.073c-6.237 2.443-7.235 8.525-7.235 8.525l-2.686-2.199c1.048-5.572 8.722-9.096 8.722-9.096l.609.502c.258.209.461.478.59.785-.015.477.048.954.188 1.41z" fill="#9D6C3E"/><path opacity=".75" d="m1.241 24.042 2.686 2.199-.492 5.096-2.194-1.795v-5.5z" fill="#543426"/><path opacity=".75" d="M15.879 21.524c-1.524 1.611-8.403 5.9-8.142 2.726.26-3.173 3.912-5.404 3.912-5.404s.113.02.304.06c.317.467.703.884 1.146 1.235a7.03 7.03 0 0 0 2.78 1.383zM28.393 4.054s-8.024 3.472-7.46 7.797l.042.023c-.015-.008-.028-.015-.043-.021.564 4.326-.512 5.271-.514 5.271.641.256 1.24.607 1.776 1.043l.25.206c.942-1.595.798-4.519.79-4.638 0 0 .568.15 1.867-3.072s7.244-3.374 7.244-3.374l-3.952-3.235z" fill="#9D6C3E"/><path fill-rule="evenodd" clip-rule="evenodd" d="M23.234 13.743a5.465 5.465 0 0 0-1.048-1.072c-.388-.32-.81-.59-1.253-.812.562 4.321-.513 5.265-.515 5.265.641.256 1.24.607 1.776 1.043.065.053.129.105.194.16l.056.046c.928-1.57.802-4.43.79-4.63z" fill="#543426"/><path opacity=".75" d="M24.016 1.91a4.74 4.74 0 0 0-2.996 1.017l-5.69 4.657a1.893 1.893 0 0 0-.741 1.476v-.012 5.5c0 .548.263 1.102.794 1.54.365.288.797.48 1.256.558V11.15s3.93-4.36 6.005-5.126c2.076-.767 4.368-3.098 4.368-3.098a4.747 4.747 0 0 0-2.996-1.017z" fill="#9D6C3E"/><path fill-rule="evenodd" clip-rule="evenodd" d="M16.639 11.156a2.762 2.762 0 0 1-1.254-.559c-.531-.435-.795-.991-.795-1.538v5.5c0 .081.006.163.018.244.069.462.327.915.775 1.284.365.289.797.481 1.256.559v-5.49z" fill="#543426"/></g><defs><clipPath id="a"><path fill="#fff" d="M0 0h48v48H0z"/></clipPath></defs></svg>